<?xml version="1.0" encoding="UTF-8"?>
<svg width="80px" height="80px" viewBox="0 0 80 80" version="1.1" xmlns="http://www.w3.org/2000/svg" xmlns:xlink="http://www.w3.org/1999/xlink">
    <title>05108DBE-C112-4A2E-8897-8D4FC4ACD886</title>
    <defs>
        <polygon id="path-1" points="-1.94999993e-05 0 38.0249791 0 38.0249791 50.6999786 -1.94999993e-05 50.6999786"></polygon>
        <polygon id="path-3" points="0.0990404964 0 10.5299801 0 10.5299801 10.4309201 0.0990404964 10.4309201"></polygon>
        <polygon id="path-5" points="0 50.6999981 39.9749985 50.6999981 39.9749985 0 0 0"></polygon>
    </defs>
    <g id="Blockdemy-Hackathons" stroke="none" stroke-width="1" fill="none" fill-rule="evenodd">
        <g id="[1.2][F][Blockdemy][Hack][Iconos]" transform="translate(-510.000000, -60.000000)">
            <g id="icon-docu-ppt" transform="translate(510.000000, 60.000000)">
                <circle id="Oval" fill="#ECEDEF" cx="40" cy="40" r="40"></circle>
                <g id="vector" transform="translate(19.000000, 14.000000)">
                    <g id="Group-3" transform="translate(1.950000, 0.000000)">
                        <mask id="mask-2" fill="white">
                            <use xlink:href="#path-1"></use>
                        </mask>
                        <g id="Clip-2"></g>
                        <path d="M27.5940395,-1.94999993e-05 L2.40725541,-1.94999993e-05 C1.07774546,-1.94999993e-05 -1.94999993e-05,1.07774546 -1.94999993e-05,2.40706041 L-1.94999993e-05,48.2928987 C-1.94999993e-05,49.6222137 1.07774546,50.6999786 2.40725541,50.6999786 L35.6177042,50.6999786 C36.9474091,50.6999786 38.0249791,49.6222137 38.0249791,48.2928987 L38.0249791,10.4309201 L27.5940395,-1.94999993e-05 Z" id="Fill-1" fill="#FFFFFF" mask="url(#mask-2)"></path>
                    </g>
                    <g id="Group-6" transform="translate(29.444999, 0.000000)">
                        <mask id="mask-4" fill="white">
                            <use xlink:href="#path-3"></use>
                        </mask>
                        <g id="Clip-5"></g>
                        <path d="M0.0990404964,8.02384021 C0.0990404964,9.35315516 1.17661046,10.4309201 2.50631541,10.4309201 L10.5299801,10.4309201 L0.0990404964,-1.94999993e-05 L0.0990404964,8.02384021 Z" id="Fill-4" fill="#E6E6E6" mask="url(#mask-4)"></path>
                    </g>
                    <mask id="mask-6" fill="white">
                        <use xlink:href="#path-5"></use>
                    </mask>
                    <g id="Clip-8"></g>
                    <polygon id="Fill-7" fill="#FF703F" mask="url(#mask-6)" points="0 23.1706792 24.8624991 23.1706792 24.8624991 12.2506796 0 12.2506796"></polygon>
                    <polygon id="Fill-9" fill="#B34E2C" mask="url(#mask-6)" points="1.95001943 25.1206986 1.94999993e-05 23.1706987 1.95001943 23.1706987"></polygon>
                    <path d="M7.31460573,17.6989989 C7.46280573,17.7379988 7.65000572,17.7535988 7.87620571,17.7535988 C8.69501068,17.7535988 9.19421066,17.3557989 9.19421066,16.6305939 C9.19421066,15.9363939 8.70281068,15.6011889 7.95401071,15.6011889 C7.65780572,15.6011889 7.43160573,15.6245889 7.31460573,15.6557889 L7.31460573,17.6989989 Z M6.63620076,15.1643889 C6.96380074,15.1097889 7.39260573,15.0629889 7.93841071,15.0629889 C8.60921068,15.0629889 9.10041567,15.2189889 9.41261065,15.4997889 C9.70101564,15.7491939 9.87261564,16.1313939 9.87261564,16.5993939 C9.87261564,17.0749989 9.73221564,17.4493989 9.46701565,17.7223988 C9.10821567,18.1045988 8.52341069,18.2995988 7.86060571,18.2995988 C7.65780572,18.2995988 7.47060573,18.2917988 7.31460573,18.2526038 L7.31460573,20.3584088 L6.63620076,20.3584088 L6.63620076,15.1643889 Z" id="Fill-10" fill="#FFFFFF" mask="url(#mask-6)"></path>
                    <path d="M11.4642641,17.6989989 C11.6124641,17.7379988 11.7996641,17.7535988 12.0256691,17.7535988 C12.844474,17.7535988 13.343674,17.3557989 13.343674,16.6305939 C13.343674,15.9363939 12.852274,15.6011889 12.1036691,15.6011889 C11.8074641,15.6011889 11.5812641,15.6245889 11.4642641,15.6557889 L11.4642641,17.6989989 Z M10.7858591,15.1643889 C11.1132641,15.1097889 11.5420691,15.0629889 12.0880691,15.0629889 C12.758869,15.0629889 13.250074,15.2189889 13.562074,15.4997889 C13.850479,15.7491939 14.022079,16.1313939 14.022079,16.5993939 C14.022079,17.0749989 13.881679,17.4493989 13.616674,17.7223988 C13.257874,18.1045988 12.672874,18.2995988 12.0100691,18.2995988 C11.8074641,18.2995988 11.6202641,18.2917988 11.4642641,18.2526038 L11.4642641,20.3584088 L10.7858591,20.3584088 L10.7858591,15.1643889 Z" id="Fill-11" fill="#FFFFFF" mask="url(#mask-6)"></path>
                    <polygon id="Fill-12" fill="#FFFFFF" mask="url(#mask-6)" points="15.9334494 15.6791109 14.3348395 15.6791109 14.3348395 15.1021059 18.2262593 15.1021059 18.2262593 15.6791109 16.6198494 15.6791109 16.6198494 20.3583308 15.9334494 20.3583308"></polygon>
                </g>
            </g>
        </g>
    </g>
</svg>