<?xml version="1.0" encoding="UTF-8"?>
<svg width="80px" height="80px" viewBox="0 0 80 80" version="1.1" xmlns="http://www.w3.org/2000/svg" xmlns:xlink="http://www.w3.org/1999/xlink">
    <title>E3976C77-DB58-4A81-9A2B-DC872205091C</title>
    <defs>
        <polygon id="path-1" points="-3.93142884e-05 0.0977777846 38.3313919 0.0977777846 38.3313919 50.9422062 -3.93142884e-05 50.9422062"></polygon>
        <polygon id="path-3" points="0.0998189784 0.0977777846 10.6148186 0.0977777846 10.6148186 10.5584167 0.0998189784 10.5584167"></polygon>
        <polygon id="path-5" points="-5.63781825e-13 54.7555594 42.656003 54.7555594 42.656003 0.0977777846 -5.63781825e-13 0.0977777846"></polygon>
    </defs>
    <g id="Blockdemy-Hackathons" stroke="none" stroke-width="1" fill="none" fill-rule="evenodd">
        <g id="[1.2][F][Blockdemy][Hack][Iconos]" transform="translate(-10.000000, -60.000000)">
            <g id="icon-docu-pdf" transform="translate(10.000000, 60.000000)">
                <circle id="Oval" fill="#ECEDEF" cx="40" cy="40" r="40"></circle>
                <g id="vector" transform="translate(19.000000, 14.000000)">
                    <g id="Group-3" transform="translate(1.965714, 0.000000)">
                        <mask id="mask-2" fill="white">
                            <use xlink:href="#path-1"></use>
                        </mask>
                        <g id="Clip-2"></g>
                        <path d="M27.8163923,0.097758229 L2.42643857,0.097758229 C1.08641105,0.097758229 -3.93142884e-05,1.17859386 -3.93142884e-05,2.51169617 L-3.93142884e-05,48.5282683 C-3.93142884e-05,49.8613706 1.08641105,50.9422062 2.42643857,50.9422062 L35.904914,50.9422062 C37.2449416,50.9422062 38.3313919,49.8613706 38.3313919,48.5282683 L38.3313919,10.5584167 L27.8163923,0.097758229 Z" id="Fill-1" fill="#FFFFFF" mask="url(#mask-2)"></path>
                    </g>
                    <g id="Group-6" transform="translate(29.682288, 0.000000)">
                        <mask id="mask-4" fill="white">
                            <use xlink:href="#path-3"></use>
                        </mask>
                        <g id="Clip-5"></g>
                        <path d="M0.0998189784,8.14447879 C0.0998189784,9.4775811 1.18626934,10.5584167 2.52629686,10.5584167 L10.6148186,10.5584167 L0.0998189784,0.097758229 L0.0998189784,8.14447879 Z" id="Fill-4" fill="#E6E6E6" mask="url(#mask-4)"></path>
                    </g>
                    <mask id="mask-6" fill="white">
                        <use xlink:href="#path-5"></use>
                    </mask>
                    <g id="Clip-8"></g>
                    <polygon id="Fill-7" fill="#FF3333" mask="url(#mask-6)" points="-3.16445283e-13 23.3344727 25.0628589 23.3344727 25.0628589 12.3833609 -3.16445283e-13 12.3833609"></polygon>
                    <polygon id="Fill-9" fill="#B32424" mask="url(#mask-6)" points="1.96571442 25.290048 6.69036255e-13 23.3344923 1.96571442 23.3344923"></polygon>
                    <path d="M7.07867524,17.823795 C7.22806953,17.8629061 7.41677812,17.8785506 7.64460442,17.8785506 C8.47020447,17.8785506 8.9732308,17.4796172 8.9732308,16.7523461 C8.9732308,16.0561682 8.47806733,15.7200082 7.72323299,15.7200082 C7.42464097,15.7200082 7.1966181,15.7434749 7.07867524,15.7747638 L7.07867524,17.823795 Z M6.39480319,15.2819637 C6.72484664,15.2272082 7.15730381,15.1802748 7.70770385,15.1802748 C8.38371304,15.1802748 8.8788765,15.3367193 9.19339081,15.6183193 C9.48431655,15.8684349 9.65729941,16.2517238 9.65729941,16.7210572 C9.65729941,17.1980172 9.51576798,17.5734839 9.24843081,17.8472617 C8.88693593,18.2305506 8.29722161,18.4261062 7.62907527,18.4261062 C7.42464097,18.4261062 7.23593239,18.4182839 7.07867524,18.3789773 L7.07867524,20.4907819 L6.39480319,20.4907819 L6.39480319,15.2819637 Z" id="Fill-10" fill="#FFFFFF" mask="url(#mask-6)"></path>
                    <path d="M11.2616762,19.9510485 C11.4346591,19.9823374 11.6862705,19.9901596 11.9536077,19.9901596 C13.4157061,19.9901596 14.2098547,19.176844 14.2098547,17.753395 C14.217521,16.5098571 13.5100604,15.7200082 12.0634911,15.7200082 C11.7096625,15.7200082 11.4425219,15.7512971 11.2616762,15.7904082 L11.2616762,19.9510485 Z M10.5778042,15.289786 C10.9945356,15.2272082 11.4896991,15.1802748 12.0322363,15.1802748 C13.0148969,15.1802748 13.7144947,15.4071193 14.1782067,15.8373415 C14.6499782,16.2675638 14.9251782,16.8775016 14.9251782,17.7299283 C14.9251782,18.5903728 14.657841,19.2941773 14.1626776,19.7791552 C13.6673175,20.2717596 12.8497769,20.5377152 11.8199391,20.5377152 C11.3324419,20.5377152 10.9235733,20.5142485 10.5778042,20.4751374 L10.5778042,15.289786 Z" id="Fill-11" fill="#FFFFFF" mask="url(#mask-6)"></path>
                    <polygon id="Fill-12" fill="#FFFFFF" mask="url(#mask-6)" points="15.8143888 15.2194251 18.668213 15.2194251 18.668213 15.7902518 16.4982608 15.7902518 16.4982608 17.5422341 18.5028964 17.5422341 18.5028964 18.1054341 16.4982608 18.1054341 16.4982608 20.490821 15.8143888 20.490821"></polygon>
                </g>
            </g>
        </g>
    </g>
</svg>