<?xml version="1.0" encoding="UTF-8"?>
<svg width="80px" height="80px" viewBox="0 0 80 80" version="1.1" xmlns="http://www.w3.org/2000/svg" xmlns:xlink="http://www.w3.org/1999/xlink">
    <title>D8711DB0-8D04-4FA9-9CA8-7CA5C9469795</title>
    <defs>
        <polygon id="path-1" points="-1.96000021e-05 0 38.2199846 0 38.2199846 50.9599859 -1.96000021e-05 50.9599859"></polygon>
        <polygon id="path-3" points="0.0995484108 0 10.5839816 0 10.5839816 10.4844135 0.0995484108 10.4844135"></polygon>
        <polygon id="path-5" points="0 50.9600055 40.1800044 50.9600055 40.1800044 0 0 0"></polygon>
    </defs>
    <g id="Blockdemy-Hackathons" stroke="none" stroke-width="1" fill="none" fill-rule="evenodd">
        <g id="[1.2][F][Blockdemy][Hack][Iconos]" transform="translate(-110.000000, -60.000000)">
            <g id="icon-docu-doc" transform="translate(110.000000, 60.000000)">
                <circle id="Oval" fill="#ECEDEF" cx="40" cy="40" r="40"></circle>
                <g id="vector" transform="translate(19.000000, 14.000000)">
                    <g id="Group-3" transform="translate(1.960000, 0.000000)">
                        <mask id="mask-2" fill="white">
                            <use xlink:href="#path-1"></use>
                        </mask>
                        <g id="Clip-2"></g>
                        <path d="M27.7355514,-1.96000021e-05 L2.41940466,-1.96000021e-05 C1.08327252,-1.96000021e-05 -1.96000021e-05,1.08327252 -1.96000021e-05,2.41940466 L-1.96000021e-05,48.5405617 C-1.96000021e-05,49.8766938 1.08327252,50.9599859 2.41940466,50.9599859 L35.8005603,50.9599859 C37.1366924,50.9599859 38.2199846,49.8766938 38.2199846,48.5405617 L38.2199846,10.4844135 L27.7355514,-1.96000021e-05 Z" id="Fill-1" fill="#FFFFFF" mask="url(#mask-2)"></path>
                    </g>
                    <g id="Group-6" transform="translate(29.596003, 0.000000)">
                        <mask id="mask-4" fill="white">
                            <use xlink:href="#path-3"></use>
                        </mask>
                        <g id="Clip-5"></g>
                        <path d="M0.0995484108,8.06498928 C0.0995484108,9.40112142 1.18284053,10.4844135 2.51897267,10.4844135 L10.5839816,10.4844135 L0.0995484108,-1.96000021e-05 L0.0995484108,8.06498928 Z" id="Fill-4" fill="#E6E6E6" mask="url(#mask-4)"></path>
                    </g>
                    <mask id="mask-6" fill="white">
                        <use xlink:href="#path-5"></use>
                    </mask>
                    <g id="Clip-8"></g>
                    <polygon id="Fill-7" fill="#33BBFF" mask="url(#mask-6)" points="0 23.2895065 24.9900027 23.2895065 24.9900027 12.3135053 0 12.3135053"></polygon>
                    <polygon id="Fill-9" fill="#2483B3" mask="url(#mask-6)" points="1.96001981 25.2495263 1.96000021e-05 23.2895261 1.96001981 23.2895261"></polygon>
                    <path d="M6.01553465,19.9023126 C6.18801467,19.9336726 6.4388947,19.9415126 6.70525873,19.9415126 C8.16330289,19.9415126 8.95514297,19.1263485 8.95514297,17.6996643 C8.96278698,16.4533002 8.2573829,15.6616561 6.81501874,15.6616561 C6.4622187,15.6616561 6.19585467,15.6930161 6.01553465,15.7322161 L6.01553465,19.9023126 Z M5.33365058,15.2304561 C5.74897463,15.1677361 6.24289468,15.120696 6.78365874,15.120696 C7.76346285,15.120696 8.46122292,15.3480561 8.92358697,15.7792561 C9.39398702,16.2104562 9.66838705,16.8217802 9.66838705,17.6761443 C9.66838705,18.5385444 9.40182702,19.2439485 8.90790697,19.7300285 C8.41418292,20.2237526 7.59901883,20.4903126 6.57197872,20.4903126 C6.08609466,20.4903126 5.67841462,20.4667926 5.33365058,20.4275926 L5.33365058,15.2304561 Z" id="Fill-10" fill="#FFFFFF" mask="url(#mask-6)"></path>
                    <path d="M10.970278,17.8329247 C10.970278,18.9616889 11.5817981,19.972853 12.6556822,19.972853 C13.7374063,19.972853 14.3487304,18.9773689 14.3487304,17.7780447 C14.3487304,16.7276806 13.8001263,15.6302765 12.6635222,15.6302765 C11.5345621,15.6302765 10.970278,16.6728006 10.970278,17.8329247 M15.0700104,17.7466847 C15.0700104,19.5651729 13.9645703,20.529493 12.6162862,20.529493 C11.221158,20.529493 10.2413539,19.4477689 10.2413539,17.8486047 C10.2413539,16.1710406 11.283878,15.0736364 12.6946862,15.0736364 C14.1370503,15.0736364 15.0700104,16.1790766 15.0700104,17.7466847" id="Fill-11" fill="#FFFFFF" mask="url(#mask-6)"></path>
                    <path d="M19.6486297,20.270773 C19.3977497,20.396213 18.8961857,20.521653 18.2533056,20.521653 C16.7639014,20.521653 15.6429773,19.5808529 15.6429773,17.8486047 C15.6429773,16.1947566 16.7639014,15.0736364 18.4022656,15.0736364 C19.0606297,15.0736364 19.4761497,15.2149525 19.6564697,15.3088365 L19.4918297,15.8654765 C19.2331097,15.7400365 18.8646297,15.6459565 18.4257856,15.6459565 C17.1872615,15.6459565 16.3642574,16.4376006 16.3642574,17.8250847 C16.3642574,19.1184889 17.1088615,19.949333 18.3944256,19.949333 C18.8099456,19.949333 19.2331097,19.863093 19.5075097,19.7300089 L19.6486297,20.270773 Z" id="Fill-12" fill="#FFFFFF" mask="url(#mask-6)"></path>
                </g>
            </g>
        </g>
    </g>
</svg>