<?xml version="1.0" encoding="UTF-8"?>
<svg width="80px" height="80px" viewBox="0 0 80 80" version="1.1" xmlns="http://www.w3.org/2000/svg" xmlns:xlink="http://www.w3.org/1999/xlink">
    <title>33E82013-F90E-4C5C-BE0C-26DC86351984</title>
    <defs>
        <polygon id="path-1" points="-0.000117600002 0 38.2198831 0 38.2198831 50.9599814 -0.000117600002 50.9599814"></polygon>
        <polygon id="path-3" points="0.0994504019 0 10.5838826 0 10.5838826 10.4844126 0.0994504019 10.4844126"></polygon>
        <polygon id="path-5" points="0 50.960001 40.1800008 50.960001 40.1800008 0 0 0"></polygon>
    </defs>
    <g id="Blockdemy-Hackathons" stroke="none" stroke-width="1" fill="none" fill-rule="evenodd">
        <g id="[1.2][F][Blockdemy][Hack][Iconos]" transform="translate(-310.000000, -60.000000)">
            <g id="icon-docu-archivo" transform="translate(310.000000, 60.000000)">
                <circle id="Oval" fill="#ECEDEF" cx="40" cy="40" r="40"></circle>
                <g id="file" transform="translate(19.000000, 14.000000)">
                    <g id="Group-3" transform="translate(1.960000, 0.000000)">
                        <mask id="mask-2" fill="white">
                            <use xlink:href="#path-1"></use>
                        </mask>
                        <g id="Clip-2"></g>
                        <path d="M27.7354509,-1.96000004e-05 L2.41950245,-1.96000004e-05 C1.08337042,-1.96000004e-05 -0.000117600002,1.08327242 -0.000117600002,2.41940445 L-0.000117600002,48.5405573 C-0.000117600002,49.8766894 1.08337042,50.9599814 2.41950245,50.9599814 L35.8004591,50.9599814 C37.1367871,50.9599814 38.2198831,49.8766894 38.2198831,48.5405573 L38.2198831,10.4844126 L27.7354509,-1.96000004e-05 Z" id="Fill-1" fill="#FFFFFF" mask="url(#mask-2)"></path>
                    </g>
                    <g id="Group-6" transform="translate(29.596001, 0.000000)">
                        <mask id="mask-4" fill="white">
                            <use xlink:href="#path-3"></use>
                        </mask>
                        <g id="Clip-5"></g>
                        <path d="M0.0994504019,8.06498856 C0.0994504019,9.40112058 1.18274242,10.4844126 2.51907045,10.4844126 L10.5838826,10.4844126 L0.0994504019,-1.96000004e-05 L0.0994504019,8.06498856 Z" id="Fill-4" fill="#E6E6E6" mask="url(#mask-4)"></path>
                    </g>
                    <mask id="mask-6" fill="white">
                        <use xlink:href="#path-5"></use>
                    </mask>
                    <g id="Clip-8"></g>
                    <polygon id="Fill-7" fill="#2483B3" mask="url(#mask-6)" points="-0.000196000004 23.2895045 29.6953726 23.2895045 29.6953726 12.3135042 -0.000196000004 12.3135042"></polygon>
                    <polygon id="Fill-9" fill="#154B66" mask="url(#mask-6)" points="1.95992164 25.2495241 -7.84000015e-05 23.2895241 1.95992164 23.2895241"></polygon>
                    <path d="M3.89083528,18.3169844 L3.42180727,16.9385163 C3.31518326,16.6257003 3.24403526,16.3415003 3.17308326,16.0643563 L3.15897126,16.0643563 C3.08782326,16.3487523 3.00961926,16.6400083 2.91730326,16.9312643 L2.44827525,18.3169844 L3.89083528,18.3169844 Z M2.32028725,18.8001244 L1.82283924,20.3065804 L1.18348722,20.3065804 L2.81067925,15.5173203 L3.55685127,15.5173203 L5.1912953,20.3065804 L4.53038329,20.3065804 L4.01862728,18.8001244 L2.32028725,18.8001244 Z" id="Fill-10" fill="#FFFFFF" mask="url(#mask-6)"></path>
                    <path d="M6.51253133,17.7626767 L7.14521934,17.7626767 C7.80593535,17.7626767 8.22498336,17.4002727 8.22498336,16.8530407 C8.22498336,16.2350527 7.77751535,15.9649647 7.12365934,15.9579087 C6.82534733,15.9579087 6.61209933,15.9863287 6.51253133,16.0147487 L6.51253133,17.7626767 Z M5.89454331,15.5811967 C6.20696732,15.5173007 6.65482733,15.4816287 7.08093134,15.4816287 C7.74184335,15.4816287 8.16833936,15.6025607 8.46684736,15.8724527 C8.70831937,16.0857007 8.84336337,16.4126287 8.84336337,16.7820887 C8.84336337,17.4145807 8.44528736,17.8338247 7.94097935,18.0043448 L7.94097935,18.0257088 C8.31043936,18.1535008 8.53074337,18.4945408 8.64442337,18.9919888 C8.80083137,19.6599568 8.91451137,20.1219288 9.01388338,20.3065608 L8.37433536,20.3065608 C8.29632736,20.1717128 8.18970336,19.7595248 8.05465936,19.1627048 C7.91255935,18.5017928 7.65658335,18.2530688 7.09543534,18.2317048 L6.51253133,18.2317048 L6.51253133,20.3065608 L5.89454331,20.3065608 L5.89454331,15.5811967 Z" id="Fill-11" fill="#FFFFFF" mask="url(#mask-6)"></path>
                    <path d="M13.0850387,20.1502704 C12.8576787,20.2639504 12.4029586,20.3776304 11.8202506,20.3776304 C10.4700066,20.3776304 9.45394258,19.5250304 9.45394258,17.9544823 C9.45394258,16.4550823 10.4700066,15.4390183 11.9550986,15.4390183 C12.5521146,15.4390183 12.9288267,15.5670063 13.0920947,15.6522663 L12.9429387,16.1567703 C12.7085226,16.0430903 12.3745386,15.9578303 11.9766586,15.9578303 C10.8537746,15.9578303 10.1077986,16.6753863 10.1077986,17.9331183 C10.1077986,19.1057864 10.7828226,19.8590144 11.9480426,19.8590144 C12.3247546,19.8590144 12.7085226,19.7808104 12.9572467,19.6600744 L13.0850387,20.1502704 Z" id="Fill-12" fill="#FFFFFF" mask="url(#mask-6)"></path>
                    <polygon id="Fill-13" fill="#FFFFFF" mask="url(#mask-6)" points="14.4775207 15.5172811 14.4775207 17.5211851 16.7940447 17.5211851 16.7940447 15.5172811 17.4194807 15.5172811 17.4194807 20.3067372 16.7940447 20.3067372 16.7940447 18.0611652 14.4775207 18.0611652 14.4775207 20.3067372 13.8593367 20.3067372 13.8593367 15.5172811"></polygon>
                    <polygon id="Fill-14" fill="#FFFFFF" mask="url(#mask-6)" points="18.4922084 20.3065804 19.1101964 20.3065804 19.1101964 15.5171243 18.4922084 15.5171243"></polygon>
                    <path d="M21.241814,20.3066588 L19.678322,15.5172027 L20.346486,15.5172027 L21.092462,17.8764547 C21.298654,18.5230588 21.47623,19.1057668 21.604218,19.6671108 L21.618526,19.6671108 C21.753374,19.1128228 21.952314,18.5089468 22.165562,17.8835107 L22.97563,15.5172027 L23.6365421,15.5172027 L21.923894,20.3066588 L21.241814,20.3066588 Z" id="Fill-15" fill="#FFFFFF" mask="url(#mask-6)"></path>
                    <path d="M24.5315173,17.9403899 C24.5315173,18.963706 25.0858053,19.880202 26.0593373,19.880202 C27.0399253,19.880202 27.5942133,18.977818 27.5942133,17.8906059 C27.5942133,16.9384379 27.0967653,15.9435419 26.0663933,15.9435419 C25.0430773,15.9435419 24.5315173,16.8886539 24.5315173,17.9403899 M28.2480693,17.8621859 C28.2480693,19.510742 27.2461173,20.384902 26.0236653,20.384902 C24.7588773,20.384902 23.8706053,19.404118 23.8706053,17.9545019 C23.8706053,16.4339339 24.8157173,15.4390379 26.0950093,15.4390379 C27.4023293,15.4390379 28.2480693,16.4409899 28.2480693,17.8621859" id="Fill-16" fill="#FFFFFF" mask="url(#mask-6)"></path>
                </g>
            </g>
        </g>
    </g>
</svg>