<?xml version="1.0" encoding="UTF-8"?>
<svg width="80px" height="80px" viewBox="0 0 80 80" version="1.1" xmlns="http://www.w3.org/2000/svg" xmlns:xlink="http://www.w3.org/1999/xlink">
    <title>EA6A2435-B547-471F-9F3D-D3CBAB1EC9E3</title>
    <defs>
        <polygon id="path-1" points="-1.96350001e-05 0 38.2882305 0 38.2882305 51.0509806 -1.96350001e-05 51.0509806"></polygon>
        <polygon id="path-3" points="0.0997261654 0 10.6028804 0 10.6028804 10.5031346 0.0997261654 10.5031346"></polygon>
        <polygon id="path-5" points="0 51.0510002 40.2517502 51.0510002 40.2517502 0 0 0"></polygon>
    </defs>
    <g id="Blockdemy-Hackathons" stroke="none" stroke-width="1" fill="none" fill-rule="evenodd">
        <g id="[1.2][F][Blockdemy][Hack][Iconos]" transform="translate(-210.000000, -60.000000)">
            <g id="icon-docu-xls" transform="translate(210.000000, 60.000000)">
                <circle id="Oval" fill="#ECEDEF" cx="40" cy="40" r="40"></circle>
                <g id="vector" transform="translate(19.000000, 14.000000)">
                    <g id="Group-3" transform="translate(1.963500, 0.000000)">
                        <mask id="mask-2" fill="white">
                            <use xlink:href="#path-1"></use>
                        </mask>
                        <g id="Clip-2"></g>
                        <path d="M27.7850763,-1.96350001e-05 L2.42372478,-1.96350001e-05 C1.08520682,-1.96350001e-05 -1.96350001e-05,1.08520682 -1.96350001e-05,2.42372478 L-1.96350001e-05,48.6272362 C-1.96350001e-05,49.9657541 1.08520682,51.0509806 2.42372478,51.0509806 L35.8642898,51.0509806 C37.2032004,51.0509806 38.2882305,49.9657541 38.2882305,48.6272362 L38.2882305,10.5031346 L27.7850763,-1.96350001e-05 Z" id="Fill-1" fill="#FFFFFF" mask="url(#mask-2)"></path>
                    </g>
                    <g id="Group-6" transform="translate(29.648850, 0.000000)">
                        <mask id="mask-4" fill="white">
                            <use xlink:href="#path-3"></use>
                        </mask>
                        <g id="Clip-5"></g>
                        <path d="M0.0997261654,8.0793902 C0.0997261654,9.41790816 1.18475627,10.5031346 2.52366693,10.5031346 L10.6028804,10.5031346 L0.0997261654,-1.96350001e-05 L0.0997261654,8.0793902 Z" id="Fill-4" fill="#E6E6E6" mask="url(#mask-4)"></path>
                    </g>
                    <mask id="mask-6" fill="white">
                        <use xlink:href="#path-5"></use>
                    </mask>
                    <g id="Clip-8"></g>
                    <polygon id="Fill-7" fill="#50AD23" mask="url(#mask-6)" points="0 23.3310925 25.0346251 23.3310925 25.0346251 12.3354925 0 12.3354925"></polygon>
                    <polygon id="Fill-9" fill="#2F6615" mask="url(#mask-6)" points="1.96351964 25.2946121 1.96350001e-05 23.3311121 1.96351964 23.3311121"></polygon>
                    <path d="M10.050862,20.4836641 L9.37561437,19.3136144 C9.10072436,18.8659364 8.92793636,18.5755348 8.76300236,18.2692287 L8.74729436,18.2692287 C8.59826471,18.5755348 8.44903871,18.8580824 8.17395236,19.3214684 L7.53797471,20.4836641 L6.75277105,20.4836641 L8.37030236,17.8058427 L6.8154067,15.1908534 L7.60866071,15.1908534 L8.30766671,16.4315891 C8.50382036,16.7771651 8.65304636,17.0442011 8.79461471,17.3269451 L8.81798036,17.3269451 C8.96720636,17.0127851 9.10072436,16.7693111 9.29707437,16.4315891 L10.019446,15.1908534 L10.804846,15.1908534 L9.19497236,17.7665727 L10.8439197,20.4836641 L10.050862,20.4836641 Z" id="Fill-10" fill="#FFFFFF" mask="url(#mask-6)"></path>
                    <polygon id="Fill-11" fill="#FFFFFF" mask="url(#mask-6)" points="11.6377824 15.190932 12.320884 15.190932 12.320884 19.9104006 14.5826397 19.9104006 14.5826397 20.4837426 11.6377824 20.4837426"></polygon>
                    <path d="M15.2507009,19.6512775 C15.5570069,19.8397735 16.0046849,19.9968535 16.4757286,19.9968535 C17.1747346,19.9968535 17.5829462,19.6277155 17.5829462,19.0938398 C17.5829462,18.5990378 17.3002022,18.3162938 16.5856846,18.0414038 C15.7217446,17.7352942 15.1878689,17.2876162 15.1878689,16.5416825 C15.1878689,15.7170125 15.8709706,15.1045969 16.8996482,15.1045969 C17.4415742,15.1045969 17.8342742,15.2302609 18.0696979,15.3637789 L17.8812019,15.9210202 C17.7086102,15.8269685 17.3551802,15.6698885 16.8760862,15.6698885 C16.1539109,15.6698885 15.8788246,16.1018585 15.8788246,16.4631425 C15.8788246,16.9577482 16.2008386,17.2012222 16.9312606,17.4839662 C17.8264202,17.8295422 18.2819522,18.2613158 18.2819522,19.0386655 C18.2819522,19.8554815 17.6771942,20.5621452 16.4286046,20.5621452 C15.9180946,20.5621452 15.3606569,20.4129192 15.0779129,20.2244232 L15.2507009,19.6512775 Z" id="Fill-12" fill="#FFFFFF" mask="url(#mask-6)"></path>
                </g>
            </g>
        </g>
    </g>
</svg>