<?xml version="1.0" encoding="utf-8"?>
<!-- Generator: Adobe Illustrator 22.0.1, SVG Export Plug-In . SVG Version: 6.00 Build 0)  -->
<svg version="1.1" id="Capa_1" xmlns="http://www.w3.org/2000/svg" xmlns:xlink="http://www.w3.org/1999/xlink" x="0px" y="0px"
	 viewBox="0 0 330 332" style="enable-background:new 0 0 330 332;" xml:space="preserve">
<style type="text/css">
	.st0{fill:#C0D260;}
	.st1{fill:url(#SVGID_1_);}
	.st2{fill:#537C4F;}
	.st3{fill:url(#SVGID_2_);}
</style>
<g>
	<path class="st0" d="M136.1,229.5V66.6H4.9v200.9l60.6-62c11.3-11.6,29.5-12.1,41.4-1.3L136.1,229.5z"/>
	
		<linearGradient id="SVGID_1_" gradientUnits="userSpaceOnUse" x1="39.5503" y1="72.7395" x2="121.8024" y2="-9.5124" gradientTransform="matrix(1 0 0 -1 0 334)">
		<stop  offset="0" style="stop-color:#30462D"/>
		<stop  offset="1" style="stop-color:#537C4F"/>
	</linearGradient>
	<path class="st1" d="M92.7,219.9c-3.6-3.2-8.8-3-12.1,0.4L5,297.7V329h131.3v-73.2L92.7,219.9z"/>
	<path class="st2" d="M264.7,117.5c8.2,0,15.9,3.4,21.4,9.3l37,38.8V4.1H160.8v207l82.3-84.7C248.8,120.6,256.5,117.3,264.7,117.5z"
		/>
	
		<linearGradient id="SVGID_2_" gradientUnits="userSpaceOnUse" x1="190.2469" y1="124.6812" x2="316.3583" y2="-1.4301" gradientTransform="matrix(1 0 0 -1 0 334)">
		<stop  offset="2.420775e-04" style="stop-color:#30462D"/>
		<stop  offset="1" style="stop-color:#537C4F"/>
	</linearGradient>
	<path class="st3" d="M264.6,138.6c-2.5-0.2-4.6,0.9-6.3,2.7l-97.5,100.2v87.2h162.4V196.3l-52.2-55
		C269.2,139.5,267.1,138.6,264.6,138.6z"/>
</g>
</svg>
