<?xml version="1.0" encoding="utf-8"?>
<!-- Generator: Adobe Illustrator 22.0.1, SVG Export Plug-In . SVG Version: 6.00 Build 0)  -->
<svg version="1.1" id="Capa_1" xmlns="http://www.w3.org/2000/svg" xmlns:xlink="http://www.w3.org/1999/xlink" x="0px" y="0px"
	 viewBox="0 0 500 332" style="enable-background:new 0 0 500 332;" xml:space="preserve">
<style type="text/css">
	.st0{fill:#537C4F;}
	.st1{fill:#AFCD56;}
	.st2{fill:#C0D260;}
	.st3{fill:url(#SVGID_1_);}
	.st4{fill:url(#SVGID_2_);}
</style>
<g>
	<g>
		<path class="st0" d="M66.6,270H36.7l-4.2,12.4H5.7l32-75.4h28.7l32,75.4H70.9L66.6,270z M61.1,253.7l-9.4-27.1l-9.3,27.1H61.1z"/>
		<path class="st0" d="M88.3,210.7h25.8l17.5,40.7l18.2-40.7h25l-33,69.6l-17.3-0.1L88.3,210.7z"/>
		<path class="st1" d="M125.8,217.6h25.8l17.5,40.7l18.2-40.7h25l-33,69.6l-17.3-0.1L125.8,217.6z"/>
		<path class="st1" d="M217.7,207h26.4v75.4h-26.4V207z"/>
		<path class="st1" d="M312.5,270h-29.9l-4.2,12.4h-26.9l32-75.4h28.7l32,75.4h-27.6L312.5,270z M307,253.7l-9.4-27.1l-9.3,27.1H307
			z"/>
		<path class="st1" d="M353.1,282.4V207h40.3c7.5,0,13.2,0.6,17.1,1.9c3.9,1.2,7.1,3.5,9.5,6.9c2.4,3.3,3.6,7.4,3.6,12.2
			c0,4.2-0.9,7.8-2.8,10.8s-4.4,5.5-7.6,7.4c-2.1,1.2-4.9,2.2-8.5,3c2.9,0.9,5,1.9,6.3,2.8c0.9,0.6,2.2,1.9,3.9,4
			c1.7,2,2.8,3.6,3.4,4.7l11.7,21.9h-27.3l-12.9-23c-1.6-3-3.1-4.9-4.4-5.8c-1.7-1.2-3.7-1.7-5.9-1.7h-2.1v30.6h-24.3V282.4z
			 M377.4,237.6h10.2c1.1,0,3.2-0.3,6.4-1c1.6-0.3,2.9-1.1,3.9-2.4c1-1.3,1.5-2.7,1.5-4.4c0-2.4-0.8-4.3-2.4-5.6s-4.6-2-9-2h-10.6
			V237.6z"/>
		<path class="st1" d="M437.2,207h56.1v16.1h-35.1v12h32.6v15.4h-32.6v14.9h36.1v17.1h-57.1V207z"/>
	</g>
	<g>
		<path class="st0" d="M41.5,306.9h6v18h-6V306.9z"/>
		<path class="st0" d="M70.9,306.9h6.4l6.5,9.3c0.2,0.3,0.4,0.6,0.4,0.9h0.1v-10.3h6v18h-6.4l-6.5-9.4c-0.2-0.3-0.3-0.5-0.3-0.9H77
			v10.4h-6L70.9,306.9L70.9,306.9z"/>
		<path class="st0" d="M113.6,306.9h7l3.7,6.9c0.2,0.4,0.4,0.8,0.4,1h0.1c0.1-0.2,0.2-0.6,0.4-1l3.7-6.9h7v18h-6v-10.4h-0.1
			c0,0.3-0.2,0.6-0.3,0.9l-2.6,5h-4.2l-2.6-5c-0.2-0.3-0.3-0.6-0.3-0.9h-0.1v10.4h-6L113.6,306.9L113.6,306.9z"/>
		<path class="st0" d="M158.3,315.9c0-6.3,4-9.3,9.4-9.3s9.4,3,9.4,9.3s-4,9.3-9.4,9.3C162.3,325.2,158.3,322.2,158.3,315.9z
			 M170.8,315.9c0-3-0.9-4.3-3.1-4.3c-2.1,0-3.1,1.3-3.1,4.3s0.9,4.3,3.1,4.3C169.8,320.2,170.8,318.9,170.8,315.9z"/>
		<path class="st0" d="M199.3,306.9h8.4c4.5,0,7.1,1.7,7.1,4.7c0,2.5-1.8,3.7-3.2,4v0.1c1.7,0.3,3.6,1.8,3.6,4.3
			c0,3-2.7,4.9-7.6,4.9h-8.3V306.9z M206.9,314.1c1.4,0,2.1-0.7,2.1-1.8c0-1.2-0.8-1.7-2.1-1.7h-1.7v3.5H206.9z M207.1,321
			c1.4,0,2.1-0.7,2.1-1.8c0-1.1-0.7-1.8-2.2-1.8h-1.8v3.6L207.1,321L207.1,321z"/>
		<path class="st0" d="M237.6,306.9h6v18h-6V306.9z"/>
		<path class="st0" d="M281.1,320.3v4.6h-14v-18h6v13.4H281.1z"/>
		<path class="st0" d="M303,306.9h6v18h-6V306.9z"/>
		<path class="st0" d="M337.1,306.9h7l6.3,18h-6.1l-1-3.5h-5.4l-1,3.5h-6.1L337.1,306.9z M342.3,317.6l-1.4-4.5
			c-0.1-0.2-0.2-0.8-0.3-1.5h-0.1c0,0.7-0.2,1.3-0.3,1.5l-1.4,4.5H342.3z"/>
		<path class="st0" d="M372.2,306.9h8.2c4.9,0,8,2.2,8,6.1c0,2.8-1.5,4.3-3.8,5.1v0.1c0.4,0.2,0.7,0.4,1.1,1.1l3.5,5.6h-6.3
			l-3.2-5.6h-1.4v5.6h-6v-18H372.2z M380.1,315.6c1.6,0,2.5-0.9,2.5-2.2c0-1.2-0.8-2.1-2.5-2.1h-1.9v4.3L380.1,315.6L380.1,315.6z"
			/>
		<path class="st0" d="M411.1,306.9h6v18h-6V306.9z"/>
		<path class="st0" d="M445.2,306.9h7l6.3,18h-6.1l-1-3.5H446l-1,3.5h-6.1L445.2,306.9z M450.4,317.6L449,313
			c-0.1-0.2-0.2-0.8-0.3-1.5h-0.1c0,0.7-0.2,1.3-0.3,1.5l-1.4,4.5h3.5V317.6z"/>
	</g>
	<g>
		<path class="st2" d="M234.4,130.3V39.1h-73.5v112.5l33.9-34.7c6.3-6.5,16.5-6.8,23.2-0.7L234.4,130.3z"/>
		
			<linearGradient id="SVGID_1_" gradientUnits="userSpaceOnUse" x1="180.325" y1="185.925" x2="226.375" y2="139.875" gradientTransform="matrix(1 0 0 -1 0 334)">
			<stop  offset="0" style="stop-color:#30462D"/>
			<stop  offset="1" style="stop-color:#537C4F"/>
		</linearGradient>
		<path class="st3" d="M210.1,124.9c-2-1.8-4.9-1.7-6.8,0.2L161,168.5V186h73.5v-41L210.1,124.9z"/>
		<path class="st0" d="M306.4,67.6c4.6,0,8.9,1.9,12,5.2l20.7,21.7V4.1h-90.9V120l46.1-47.4C297.5,69.3,301.8,67.5,306.4,67.6z"/>
		
			<linearGradient id="SVGID_2_" gradientUnits="userSpaceOnUse" x1="264.6947" y1="215.0053" x2="335.3" y2="144.4" gradientTransform="matrix(1 0 0 -1 0 334)">
			<stop  offset="2.420775e-04" style="stop-color:#30462D"/>
			<stop  offset="1" style="stop-color:#537C4F"/>
		</linearGradient>
		<path class="st4" d="M306.3,79.4c-1.4-0.1-2.6,0.5-3.5,1.5L248.2,137v48.8h90.9v-74.1l-29.2-30.8
			C308.9,79.9,307.7,79.4,306.3,79.4z"/>
	</g>
</g>
</svg>
